# xmcd
#
# Track frame offsets: 
#        182
#        24427
#        51485
#
# Disc length: 874 seconds
#
# Revision: 4
# Processed by: cddbd v1.5.2PL0 Copyright (c) Steve Scherf et al.
# Submitted via: ExactAudioCopy v1.0b6
#
DISCID=20036803
DTITLE=The Wee Papa Girl Rappers - Wee Rule (Rubadub Stylie Mix By Dru
DTITLE=mmie Zeb Of Aswad)
DYEAR=1988
DGENRE=Hip-Hop
TTITLE0=Wee Rule (Drummie Zeb Remix)
TTITLE1=Wee Rule (Ruffneck Mix)
TTITLE2=Rebel Rap
EXTD=
EXTT0=
EXTT1=
EXTT2=
PLAYORDER=
